<?xml version="1.0" encoding="utf-8"?>
<svg viewBox="0 0 1024 1024" xmlns="http://www.w3.org/2000/svg">
  <defs/>
  <path fill="#373937" d="M 511.999 0.764 C 118.449 0.764 -127.519 426.794 69.256 767.618 C 160.579 925.795 329.353 1023.236 511.999 1023.236 C 905.551 1023.236 1151.52 597.206 954.745 256.382 C 863.421 98.205 694.647 0.764 511.999 0.764"/>
  <g transform="matrix(2.130152, 0, 0, 2.130152, -578.636597, -578.637512)">
    <path fill="#FEFEFE" d="M 497.279 292.531 C 497.7 292.474 498.122 292.422 498.546 292.394 C 556.254 288.619 615.289 312.283 658.448 349.505 C 701.011 386.212 727.435 441.288 731.447 496.89 C 735.507 553.156 717.083 612.112 679.619 654.831 C 641.585 698.2 584.552 727.09 526.617 731.082 C 526.259 731.123 525.901 731.162 525.542 731.197 C 471.406 736.444 412.888 715.54 371.533 681.288 C 325.32 643.013 298.089 588.225 292.761 528.966 C 291.161 511.169 292.159 494.344 295.037 476.718 C 296.212 469.518 297.285 462.263 299.101 455.187 C 306.89 424.837 322.716 395.547 342.991 371.612 C 381.118 326.601 438.426 297.64 497.279 292.531 Z"/>
    <path fill="#373937" d="M 510.551 333.539 C 515.912 333.655 636.91 396.93 650.616 404.265 L 650.65 476.481 C 643.111 480.692 635.061 484.206 627.264 487.929 C 612.625 494.919 597.971 501.842 583.617 509.407 C 592.586 513.519 601.353 518.265 610.163 522.718 L 650.803 543.197 C 649.808 568.851 650.512 594.838 650.591 620.527 C 637.661 627.988 623.851 634.045 610.539 640.805 L 512.5 690.13 C 512.427 690.171 512.361 690.228 512.281 690.252 C 511.021 690.634 510.54 690.465 509.333 689.952 C 505.268 688.224 501.396 685.689 497.432 683.703 L 467.756 668.958 L 373.196 621.457 L 373.261 542.229 C 395.067 530.758 417.781 521.066 439.431 509.229 L 397.617 488.393 C 389.607 484.501 381.63 480.403 373.394 477.01 C 373.792 452.44 372.977 427.838 373.331 403.262 C 386.506 395.867 400.471 389.495 413.951 382.643 L 510.551 333.539 Z"/>
    <path fill="#FEFEFE" d="M 510.41 365.529 C 514.244 365.897 608.824 413.405 623.221 420.705 C 623.126 432.86 623.224 445.014 623.306 457.169 C 596.094 471.717 567.724 484.589 539.821 497.777 C 539.849 504.325 539.763 510.856 539.586 517.401 C 558.184 526.866 577.08 535.843 595.791 545.092 C 604.931 549.61 614.334 553.875 623.138 559.025 C 623.031 573.482 623.311 587.958 623.44 602.416 C 609.085 608.928 595.104 616.659 580.994 623.718 C 558.365 635.038 535.57 646.056 513.154 657.796 C 512.833 657.965 512.32 658.253 511.982 658.347 C 511.897 658.371 510.915 658.503 510.753 658.465 C 505.804 657.29 497.764 651.568 492.851 649.149 L 432.046 619.011 C 421.634 613.736 411 608.597 400.9 602.748 C 400.823 587.871 400.527 572.951 400.902 558.079 C 409.082 552.96 418.243 548.975 426.89 544.677 C 446.074 535.14 465.505 526.09 484.467 516.121 L 484.45 499.844 C 457.619 485.018 428.258 472.276 400.724 458.211 C 400.487 445.28 400.49 432.242 400.842 419.312 L 510.41 365.529 Z"/>
    <path fill="#373937" d="M 510.476 375 C 545.166 391.798 579.54 409.306 614 426.572 C 613.925 435.095 614.027 443.623 614.069 452.146 C 605.025 457.825 595.078 461.948 585.439 466.497 L 549.482 483.703 C 543.255 486.661 536.755 489.3 530.842 492.855 L 530.704 522.914 C 543.867 529.267 556.828 536.128 569.941 542.603 C 584.661 549.872 599.653 556.833 613.931 564.944 L 613.904 597.061 C 605.152 603.026 595.434 607.06 586.014 611.828 L 544.049 632.8 C 533.354 638.05 522.509 643.076 512.086 648.853 L 511.386 649.25 C 508.922 649.244 421.113 604.553 409.957 598.826 C 410.405 587.082 410.152 575.237 410.147 563.481 C 419.717 558.02 429.861 553.325 439.746 548.445 C 457.48 539.688 475.291 531.063 492.917 522.093 L 492.885 494.029 C 475.779 486.001 458.925 477.486 441.898 469.291 C 431.384 464.23 419.682 459.68 409.93 453.319 C 410.296 444.058 410.135 434.767 410.107 425.5 C 423.339 418.081 437.164 411.598 450.788 404.937 L 480.09 390.296 C 490.267 385.334 500.583 380.509 510.476 375 Z"/>
    <path fill="#FEFEFE" d="M 511.723 475.2 C 516.685 475.897 572.885 505.032 580.582 509.454 L 538.499 530.555 C 529.718 534.936 520.715 539.082 512.199 543.961 C 511.676 544.03 449.092 511.903 443.417 508.996 C 450.665 504.483 458.899 501.008 466.576 497.249 L 511.723 475.2 Z"/>
  </g>
</svg>